<mxfile host="app.diagrams.net" agent="Mozilla/5.0 (Windows NT 10.0; Win64; x64) AppleWebKit/537.36 (KHTML, like Gecko) Chrome/138.0.0.0 Safari/537.36" version="28.0.7">
  <diagram name="ページ1" id="vjMdxVL-OiQ_FZsy-fXF">
    <mxGraphModel dx="949" dy="735" grid="1" gridSize="10" guides="1" tooltips="1" connect="1" arrows="1" fold="1" page="1" pageScale="1" pageWidth="1654" pageHeight="1169" math="0" shadow="0">
      <root>
        <mxCell id="0" />
        <mxCell id="1" parent="0" />
        <mxCell id="uxDuG8u2Mx19cAOp2NZg-1" value="遊びの&quot;空間&quot;➁" style="text;html=1;align=center;verticalAlign=middle;whiteSpace=wrap;rounded=0;fillColor=#dae8fc;strokeColor=#6c8ebf;" vertex="1" parent="1">
          <mxGeometry x="80" y="40" width="200" height="40" as="geometry" />
        </mxCell>
        <mxCell id="uxDuG8u2Mx19cAOp2NZg-2" value="" style="endArrow=classic;startArrow=classic;html=1;rounded=0;" edge="1" parent="1" target="uxDuG8u2Mx19cAOp2NZg-3">
          <mxGeometry width="50" height="50" relative="1" as="geometry">
            <mxPoint x="120" y="280" as="sourcePoint" />
            <mxPoint x="440" y="280" as="targetPoint" />
          </mxGeometry>
        </mxCell>
        <mxCell id="uxDuG8u2Mx19cAOp2NZg-3" value="仮構" style="text;html=1;align=center;verticalAlign=middle;whiteSpace=wrap;rounded=0;" vertex="1" parent="1">
          <mxGeometry x="440" y="265" width="60" height="30" as="geometry" />
        </mxCell>
        <mxCell id="uxDuG8u2Mx19cAOp2NZg-4" value="現実" style="text;html=1;align=center;verticalAlign=middle;whiteSpace=wrap;rounded=0;" vertex="1" parent="1">
          <mxGeometry x="60" y="265" width="60" height="30" as="geometry" />
        </mxCell>
        <mxCell id="uxDuG8u2Mx19cAOp2NZg-5" value="" style="endArrow=classic;startArrow=classic;html=1;rounded=0;" edge="1" parent="1">
          <mxGeometry width="50" height="50" relative="1" as="geometry">
            <mxPoint x="280" y="120" as="sourcePoint" />
            <mxPoint x="280" y="440" as="targetPoint" />
          </mxGeometry>
        </mxCell>
        <mxCell id="uxDuG8u2Mx19cAOp2NZg-6" value="秩序" style="text;html=1;align=center;verticalAlign=middle;whiteSpace=wrap;rounded=0;" vertex="1" parent="1">
          <mxGeometry x="250" y="90" width="60" height="30" as="geometry" />
        </mxCell>
        <mxCell id="uxDuG8u2Mx19cAOp2NZg-7" value="非秩序" style="text;html=1;align=center;verticalAlign=middle;whiteSpace=wrap;rounded=0;" vertex="1" parent="1">
          <mxGeometry x="250" y="440" width="60" height="30" as="geometry" />
        </mxCell>
        <mxCell id="uxDuG8u2Mx19cAOp2NZg-9" value="遊び&lt;div&gt;終盤&lt;/div&gt;" style="rounded=1;whiteSpace=wrap;html=1;fillColor=#d5e8d4;strokeColor=#82b366;" vertex="1" parent="1">
          <mxGeometry x="300" y="150" width="110" height="100" as="geometry" />
        </mxCell>
        <mxCell id="uxDuG8u2Mx19cAOp2NZg-10" value="遊び&lt;div&gt;初期&lt;/div&gt;" style="rounded=1;whiteSpace=wrap;html=1;fillColor=#d5e8d4;strokeColor=#82b366;" vertex="1" parent="1">
          <mxGeometry x="300" y="310" width="110" height="100" as="geometry" />
        </mxCell>
        <mxCell id="uxDuG8u2Mx19cAOp2NZg-11" value="" style="shape=flexArrow;endArrow=classic;html=1;rounded=0;" edge="1" parent="1">
          <mxGeometry width="50" height="50" relative="1" as="geometry">
            <mxPoint x="360" y="305" as="sourcePoint" />
            <mxPoint x="360" y="255" as="targetPoint" />
          </mxGeometry>
        </mxCell>
        <mxCell id="uxDuG8u2Mx19cAOp2NZg-12" value="守" style="rounded=1;whiteSpace=wrap;html=1;" vertex="1" parent="1">
          <mxGeometry x="140" y="202.5" width="40" height="155" as="geometry" />
        </mxCell>
        <mxCell id="uxDuG8u2Mx19cAOp2NZg-15" value="破" style="rounded=1;whiteSpace=wrap;html=1;" vertex="1" parent="1">
          <mxGeometry x="180" y="170" width="50" height="220" as="geometry" />
        </mxCell>
        <mxCell id="uxDuG8u2Mx19cAOp2NZg-16" value="離" style="rounded=1;whiteSpace=wrap;html=1;" vertex="1" parent="1">
          <mxGeometry x="230" y="150" width="50" height="260" as="geometry" />
        </mxCell>
        <mxCell id="uxDuG8u2Mx19cAOp2NZg-18" value="" style="shape=flexArrow;endArrow=classic;html=1;rounded=0;" edge="1" parent="1">
          <mxGeometry width="50" height="50" relative="1" as="geometry">
            <mxPoint x="165" y="320" as="sourcePoint" />
            <mxPoint x="245" y="320" as="targetPoint" />
          </mxGeometry>
        </mxCell>
      </root>
    </mxGraphModel>
  </diagram>
</mxfile>
